<svg xmlns="http://www.w3.org/2000/svg" width="291" height="218.489"><g transform="translate(4749.063 20362.569)"><ellipse cx="75" cy="17.5" fill="#3f3d56" rx="75" ry="17.5" transform="translate(-4682.528 -20179.08)"/><path fill="none" stroke="#3f3d56" d="M-4726.063-20270.186l190.998 56-18.474-122.377z"/><g transform="translate(-4634.012 -20332.289)"><path fill="#3f3d56" d="M8.744 29.075H7.181l-6.643 24.1s-.13 16.022 1.433 23.837c0 0 2.605-3.387 4.429-3.387s3.517-17.064 3.517-17.064 7.163-24.36-1.173-27.486z"/><path fill="#ab8362" d="M43.132 75.186s-4.168 11.723-.26 12.5 5.992-9.118 4.95-10.421-4.69-2.079-4.69-2.079zM1.546 72.764S2.718 85.151 6.59 84.209s1.581-10.8.087-11.536-5.131.091-5.131.091zm10.063 72.501s1.824 8.857-1.3 11.2 1.042 7.294 1.042 7.294l9.9-10.421s-4.168-6.513-3.908-10.421zm15.631 8.076l-1.042 7.034-.26 4.95 5.731-.521.781-10.16z"/><path fill="#2f2e41" d="M5.182 74.006a4.624 4.624 0 00-2.952 4.567c.261 3.387 1.042 14.068 1.042 14.068s-2.345 22.925 0 30.741 6.773 23.446 6.773 23.446 6.773 1.3 8.336-3.647c0 0-.26-16.933-3.126-20.581s-.782-4.689-.521-5.21 1.042-1.3 1.042-2.084.26-3.647.26-4.689a3.988 3.988 0 01.261-2.345c.521-1.563 1.042-2.084 1.042-2.345s4.429-14.068 4.429-14.068l5.731 32.043s-1.3 31.522-.782 31.522 6.252 2.084 8.336 0c0 0 5.21-27.094 4.168-28.657s-1.3-1.824-1.042-3.387.781-2.345.26-3.126-1.3-3.387-.521-4.168 1.042-4.429 1.042-4.429 4.429-25.53 1.563-29.178-35.341-8.473-35.341-8.473z"/><path fill="#2f2e41" d="M13.953 156.727s-3.126-3.908-4.168-2.084-2.608 4.69-2.608 4.69-11.723 10.16-5.21 10.421a14.577 14.577 0 0010.681-4.429s1.042-5.21 4.168-5.21l.521 1.3 5.731-3.647s-.807-6.917-3.139-6.715zm10.944 7.815s6.773-2.605 7.555 0a15.423 15.423 0 01.781 3.908s5.731 9.379 0 9.9-8.336-3.13-8.336-3.13.781-4.429 0-4.95 0-5.728 0-5.728z"/><path fill="#ab8362" d="M22.811 13.705l-1.824 10.16 12.765 3.126s-3-7.425.261-10.681c.823-.824-11.202-2.605-11.202-2.605z"/><path fill="rgba(0,0,0,0.2)" d="M32.393 20.256v-.362s-1.587 1.104-5.123.101a9.599 9.599 0 01-5.111-3.303l-.073.394a8.723 8.723 0 005.102 3.469c3.323.7 5.193-.275 5.205-.299z"/><circle cx="9.118" cy="9.118" r="9.118" fill="#ab8362" transform="translate(20.466 2.503)"/><path fill="rgba(0,0,0,0.2)" d="M32.5 22.278l-.079-.266s-2.062.858-5.81-.001-4.921-2.704-4.921-2.704l-.073.394a9.359 9.359 0 005.18 2.86 12.781 12.781 0 005.703-.283z" data-name="face_shadow"/><path fill="#3f3d56" d="M21.765 19.537a1.663 1.663 0 00-1.3 1.2 6.939 6.939 0 01-1.042 2.084S7.179 28.552 7.179 29.334s4.95 17.454 4.95 17.454.26 10.421-1.824 12.765-4.168 10.942-3.647 11.723-3.647 2.605-2.084 3.908S28.02 88.991 41.046 83.26a17.836 17.836 0 000-3.908c-.26-1.563 1.563-6.773 1.042-8.6s0-20.581 0-20.581l2.685-22.211a1.808 1.808 0 00-1.268-1.947c-3-.913-9.966-4.649-10.926-3.847-1.241 1.044-8.995.337-10.814-2.629z"/><path d="M39.696 38.492a14.989 14.989 0 013.164 8.183c.576 5.389-.859 13.372-.859 13.372s-4.87-18.075-2.305-21.555z" opacity=".1"/><path fill="#3f3d56" d="M42.349 25.949l.017-.007a1.807 1.807 0 012.131.61c1.614 2.209 5.012 7.174 5.407 10.338.521 4.168 2.084 15.37 1.824 16.933s-.521 1.824 0 2.605.26.521 0 1.3-3.387 22.4-3.387 22.4-2.084-4.689-5.992-3.126c0 0 .521-4.168 0-5.471s-1.042-2.084-.521-3.126 0-11.2-.261-12.244a53.546 53.546 0 010-6.513l-2.345-10.681z"/><path fill="#2f2e41" d="M27.881 13.173l.308-2.147c.072-.5.365-1.158.852-1.022.414.116 1.316.47 1.467.363.566-.4 1.422.3 2.017-.056.249-.149.412-.469.7-.49a.8.8 0 01.515.233 3.5 3.5 0 001.333.724 1.434 1.434 0 001.4-.383.746.746 0 01.248-.238.557.557 0 01.357.016l1.52.414a5.84 5.84 0 00-.781-4.808 9.672 9.672 0 00-2.214-2.168q-1.412-1.074-2.914-2.02a9.465 9.465 0 00-3.54-1.54 3.781 3.781 0 00-3.523 1.169 2.269 2.269 0 01-.816-1.1.835.835 0 00.054 1.28L23.579.579c-.361.379.345 1.067.037 1.491a.786.786 0 01-.346.226 5.892 5.892 0 00-1.885 1.186 7.033 7.033 0 00-1.484 2.734c-.766 2.2-1.323 4.717-.234 6.774.123.233 1.752 4.082 1.969 4.232.733.507.256-.72.781 0 .412.565.335-1.6.948-1.123a1.527 1.527 0 001.662.075c.254-.176.172-1.154.035-2.052a1.058 1.058 0 011.287-1.19 4.591 4.591 0 001.532.241z"/></g><path fill="#fff" d="M-4535.563-20237.186h76.222a1.278 1.278 0 011.278 1.278v42.444a1.278 1.278 0 01-1.278 1.278h-76.222a22.5 22.5 0 01-22.5-22.5 22.5 22.5 0 0122.5-22.5z"/><g fill="#1e4cf7" transform="translate(-4508.063 -20228.461)"><rect width="14.596" height="5.579" rx="1" transform="translate(30.256 22.141)"/><rect width="45" height="15" opacity=".3" rx="1"/></g><g transform="translate(-4560.49 -20237.4)"><circle cx="22.5" cy="22.5" r="22.5" fill="#4f1ef7" data-name="bg" transform="translate(2.428 .215)"/><g transform="translate(5.928 7.214)"><path d="M16.885 31.094l-.194-.048-.171-.045c0-.12-.007-.251-.011-.394a88.19 88.19 0 00-.316-5.08l-.032-.351a86.631 86.631 0 00-.251-2.306c0-.026-.007-.052-.01-.079a76.09 76.09 0 00-.273-1.993q-.107-.712-.232-1.44l-.018-.1-.074-.42a64.23 64.23 0 00-.224-1.18 50.837 50.837 0 00-1-4.137 33.159 33.159 0 00-1.476-4.128 20.386 20.386 0 00-1.609-3l-.027-.041a11.506 11.506 0 00-2.728-2.959l.214-.292a11.815 11.815 0 012.722 2.894l.012.017a19.7 19.7 0 011.62 2.9 31.741 31.741 0 011.545 4.173q.592 1.987 1.062 4.306.165.817.315 1.674l.051.293.076.453q.094.575.177 1.141.128.872.232 1.713l.066.552q.045.386.085.762.057.523.1 1.025l.009.092.014.158c.246 2.643.321 4.77.346 5.84zM4.099 9.125a8.085 8.085 0 003.92-1.37 8.085 8.085 0 00-4.04-.965A8.085 8.085 0 00.06 8.16a8.085 8.085 0 004.04.965z" opacity=".2"/><circle cx="1.81" cy="1.81" r="1.81" opacity=".2" transform="translate(4.402)"/></g><g transform="translate(5.928 9.214)"><path d="M8.994 30.068l-.02-.011a9.43 9.43 0 01-.369-.2c-.04-.48-.094-1.008-.165-1.562-.015-.114-.03-.23-.047-.347l-.026-.19a29.08 29.08 0 00-.256-1.5 12.358 12.358 0 00-2.226-5.484 3.266 3.266 0 00-.187-.2 4.079 4.079 0 00-.518-.454l.214-.292a4.637 4.637 0 01.71.649q.113.125.22.261a12.818 12.818 0 012.1 5.178c.106.5.195 1 .271 1.491q.029.191.055.379c.118.827.192 1.608.244 2.282z" data-name="stalk" opacity=".2"/><path d="M3.754 24.258a5.635 5.635 0 002.9.184 5.136 5.136 0 00-5.243-1.917 5.635 5.635 0 002.343 1.733z" data-name="leaf" opacity=".2"/><circle cx="1.81" cy="1.81" r="1.81" data-name="flower" opacity=".2" transform="translate(1.707 16.05)"/></g><path fill="#fcd8c6" d="M28.472 33.385v2.757a3.542 3.542 0 01-3.544 3.542 3.542 3.542 0 01-3.542-3.542v-2.757z" data-name="neck"/><path fill="rgba(0,0,0,0.2)" d="M28.506 36.356h-.141a3.534 3.534 0 01-3.453 3.094 3.447 3.447 0 01-3.391-3.094h-.141s.39 3.313 3.531 3.313 3.59-3.304 3.595-3.313z"/><path fill="#2f2e41" d="M24.912 45.262a22.622 22.622 0 0012.328-3.738c0-5.152-3.956-5.164-3.956-5.164H28.49s-.406 3.3-3.578 3.3-3.531-3.3-3.531-3.3h-4.912s-4.088-.094-4.088 5.007a23 23 0 0012.531 3.895z"/><circle cx="11.055" cy="11.055" r="11.055" fill="#333" transform="translate(13.898 11.998)"/><g fill="#f3c9b5" transform="translate(2)"><ellipse cx=".945" cy="1.771" rx=".945" ry="1.771" transform="translate(12.149 22.414)"/><ellipse cx=".945" cy="1.771" rx=".945" ry="1.771" transform="translate(31.862 22.414)"/></g><path fill="rgba(0,0,0,0.2)" d="M28.521 33.657v-.141s-.562.766-3.609.766-3.516-.766-3.516-.766v.141a6.176 6.176 0 003.516.766 6.654 6.654 0 003.609-.766z" data-name="face_shadow"/><circle cx="10.153" cy="10.153" r="10.153" fill="#fcd8c6" data-name="face" transform="translate(14.8 14.016)"/><path fill="#333" d="M19.137 13.858c2.6-2.111 5.271-2.391 6.951-4.642a1.315 1.315 0 01-.6 1.854c1.609-.011 3.473-.151 4.383-1.475a3.009 3.009 0 01-.508 3.178c1.426.067 3.553.56 3.553 2.646-.011 0 .686 3.2.686 3.2s-2.328 1.844-7.2 1.547a9.276 9.276 0 01-7.156-4.484s-.116-1.795-.109-1.824z"/></g><path fill="#fff" d="M-4726.563-20292.186h76.222a1.278 1.278 0 011.278 1.278v42.444a1.278 1.278 0 01-1.278 1.278h-76.222a22.5 22.5 0 01-22.5-22.5 22.5 22.5 0 0122.5-22.5z" data-name="bg"/><g fill="#1e4cf7" data-name="infos" transform="translate(-4699.063 -20283.461)"><rect width="14.596" height="5.579" data-name="btn" rx="1" transform="translate(30.256 22.141)"/><rect width="45" height="15" data-name="info_line" opacity=".3" rx="1"/></g><g data-name="avatar" transform="translate(-4749 -20292.43)"><circle cx="22.5" cy="22.5" r="22.5" fill="#4f1ef7" data-name="bg" transform="translate(-.063 .244)"/><g data-name="flowers"><g data-name="flower-2" transform="translate(3.868 22.243)"><path d="M8.758 16.2l-.024-.013a19.53 19.53 0 01-.427-.228 42.623 42.623 0 00-.245-2.206l-.031-.219a29.592 29.592 0 00-.3-1.733 14.285 14.285 0 00-2.573-6.338 5.367 5.367 0 00-.216-.235 4.71 4.71 0 00-.6-.525l.247-.337a5.356 5.356 0 01.82.75q.13.145.255.3A14.815 14.815 0 018.09 11.4c.122.58.225 1.159.313 1.723l.064.438c.141.957.231 1.86.291 2.639z" data-name="stalk" opacity=".2"/><path d="M2.702 9.486a6.513 6.513 0 003.357.213A5.936 5.936 0 000 7.483a6.513 6.513 0 002.702 2.003z" data-name="leaf" opacity=".2"/><circle cx="2.092" cy="2.092" r="2.092" data-name="flower" opacity=".2" transform="translate(.336)"/></g><g data-name="flower-1" transform="translate(6.116 8.235)"><path d="M14.839 36.206c-.075-.017-.149-.036-.224-.055l-.2-.051c0-.138-.008-.291-.013-.455a101.26 101.26 0 00-.366-5.871l-.038-.405a97.95 97.95 0 00-.291-2.665c0-.031-.008-.06-.011-.091-.093-.749-.2-1.519-.316-2.3q-.124-.823-.268-1.664l-.021-.117a67.891 67.891 0 00-.344-1.849c-.32-1.6-.7-3.214-1.158-4.781a38.319 38.319 0 00-1.706-4.77 23.557 23.557 0 00-1.859-3.465l-.031-.047A13.3 13.3 0 004.841 4.2l.247-.338a13.651 13.651 0 013.145 3.344l.014.02a22.773 22.773 0 011.872 3.355 36.663 36.663 0 011.785 4.823q.684 2.3 1.227 4.976.191.944.364 1.934l.058.339.088.524q.109.664.2 1.318.148 1.007.268 1.98.04.321.076.638.052.446.1.881.066.6.12 1.184l.01.106.017.183c.291 3.039.379 5.503.407 6.739z" data-name="stalk" opacity=".2"/><path d="M3.855 11.547a9.337 9.337 0 004.786.313A8.52 8.52 0 00-.004 8.699a9.338 9.338 0 003.859 2.848z" data-name="leaf" opacity=".2"/><circle cx="2.092" cy="2.092" r="2.092" data-name="flower" opacity=".2" transform="translate(.414)"/></g></g><path fill="#ebbb99" d="M17.938 25.035s1.117 5.305 1.117 5.864 5.305 3.072 5.305 3.072l4.747-.838 1.675-5.026s-2.792-4.188-2.792-5.864z" data-name="neck"/><path fill="rgba(0,0,0,0.2)" d="M30.156 27.369s-.42 4.7-4.656 5.547-6.5-3.281-6.5-3.281h-.172a6.094 6.094 0 006.766 3.672c4.953-.922 4.766-5.937 4.766-5.937z" data-name="teeShirt_shadow" opacity=".38"/><path fill="#2f2e41" d="M43.281 31.213c-.234.8-4.719 11.594-16.859 13.672a22.251 22.251 0 01-19.916-6.277c0-.185 12.247-9.338 12.353-8.941a5.989 5.989 0 0011.469-2.281c0-.251 12.953 3.639 12.953 3.827z" data-name="teeShirt"/><path fill="rgba(0,0,0,0.2)" d="M29.058 25.105l-.162-.264s-.802 1.815-4.733 2.579-5.867-.897-5.867-.897v.328a7.693 7.693 0 005.938.938c3.77-.73 4.822-2.656 4.824-2.684z" data-name="face_shadow"/><circle cx="9" cy="9" r="9" fill="#ebbb99" data-name="face" transform="translate(13.519 9.821)"/><path fill="#2f2e41" d="M14.714 11.668s2.837-6.147 8.274-4.728 8.511 3.546 8.747 5.674a30.361 30.361 0 01-.118 5.319s-.591-4.374-4.374-3.428-9.693.236-9.693.236l-.946 8.511s-1.064-1.537-2.246-.591-3.426-9.107.356-10.993z"/></g><path fill="#fff" d="M-4554.563-20355.185h76.222a1.278 1.278 0 011.278 1.278v42.444a1.278 1.278 0 01-1.278 1.278h-76.222a22.5 22.5 0 01-22.5-22.5 22.5 22.5 0 0122.5-22.5z" data-name="bg"/><g fill="#1e4cf7" data-name="infos" transform="translate(-4527.062 -20346.46)"><rect width="14.596" height="5.579" data-name="btn" rx="1" transform="translate(30.256 22.141)"/><rect width="45" height="15" data-name="info_line" opacity=".3" rx="1"/></g><g transform="translate(-4578.163 -20356.337)"><circle cx="22.5" cy="22.5" r="22.5" fill="#4f1ef7" data-name="bg" transform="translate(1.1 1.152)"/><g data-name="flowers"><g data-name="flower-2" transform="translate(0 -3)"><path d="M32.609 44.352l.024-.013c.143-.074.285-.15.427-.228a42.623 42.623 0 01.245-2.206l.031-.219c.082-.565.179-1.147.3-1.733a14.285 14.285 0 012.573-6.338c.07-.081.142-.159.216-.235a4.71 4.71 0 01.6-.525l-.247-.337a5.356 5.356 0 00-.82.75q-.13.145-.255.3a14.815 14.815 0 00-2.426 5.984c-.122.58-.225 1.159-.313 1.723l-.064.438c-.142.957-.231 1.86-.291 2.639z" data-name="stalk" opacity=".2"/><path d="M38.664 37.637a6.513 6.513 0 01-3.357.213 5.936 5.936 0 016.059-2.216 6.513 6.513 0 01-2.702 2.003z" data-name="leaf" opacity=".2"/><circle cx="2.092" cy="2.092" r="2.092" data-name="flower" opacity=".2" transform="translate(36.846 28.151)"/></g><g data-name="flower-1"><path d="M27.279 46.349c.075-.017.149-.036.224-.055l.2-.051c0-.138.008-.291.013-.455.041-1.29.138-3.368.366-5.871l.038-.405c.081-.848.177-1.74.291-2.665 0-.031.008-.06.011-.091.093-.749.2-1.519.316-2.3q.124-.823.268-1.664l.021-.117.085-.486c.081-.453.168-.908.259-1.363.32-1.6.7-3.214 1.158-4.781a38.319 38.319 0 011.706-4.77 23.558 23.558 0 011.859-3.465l.031-.047a13.3 13.3 0 013.152-3.42l-.247-.338a13.651 13.651 0 00-3.145 3.344l-.014.02a22.768 22.768 0 00-1.872 3.355 36.663 36.663 0 00-1.785 4.823q-.684 2.3-1.227 4.976-.191.944-.364 1.934l-.058.339-.088.524q-.109.664-.2 1.318-.148 1.007-.268 1.98-.04.321-.076.638-.052.446-.1.881-.066.6-.12 1.184l-.01.106-.017.183a94.781 94.781 0 00-.407 6.739z" data-name="stalk" opacity=".2"/><path d="M38.259 21.69a9.338 9.338 0 01-4.786.313 8.52 8.52 0 018.645-3.161 9.338 9.338 0 01-3.859 2.848z" data-name="leaf" opacity=".2"/><circle cx="2.092" cy="2.092" r="2.092" data-name="flower" opacity=".2" transform="translate(37.52 10.143)"/></g></g><circle cx="11.417" cy="11.417" r="11.417" fill="#2f2e41" data-name="hair" transform="translate(10.253 12.154)"/><path fill="#e4b09a" d="M38.71 40.322a22.529 22.529 0 01-28.547 1.391c1.2-2.181 3.482-2.9 6.34-3.7 2.157-.6 2.779-2.293 2.567-4.79s-.493-2.585-.493-2.585h6.93a14.414 14.414 0 00.679 2.418c.478 1.247 1.11 2.71 2.4 3.247a10.3 10.3 0 004.446.736c1.947-.023 2.931.08 4.028.818a5.381 5.381 0 011.65 2.465z" data-name="body"/><path fill="rgba(0,0,0,0.2)" d="M26.163 32.933l-.094-.25s-.655 1.008-3.039 1.304a6.7 6.7 0 01-3.93-.597v.215a6.158 6.158 0 003.978.626c2.32-.391 3.084-1.28 3.085-1.298z" data-name="face_shadow"/><circle cx="7" cy="7" r="7" fill="#e4b09a" data-name="face" transform="translate(15.1 20.152)"/><path fill="rgba(0,0,0,0.2)" d="M36.944 37.809l-24.141 5.609s-.424-.273-.469-.3c3.816-.889 24.011-5.61 24.188-5.562a1.518 1.518 0 01.422.253z"/><path fill="#2f2e41" d="M39.288 39.777a23.6 23.6 0 01-1.863 1.653 8.2 8.2 0 01-1.793.426l.078.8a22.579 22.579 0 01-11.984 3.5 21.048 21.048 0 01-11.172-2.891c3.816-.889 24.931-5.9 25.383-5.784s1.367 2.255 1.351 2.296z"/><g fill="#2f2e41" transform="rotate(-74.99 22.435 27.294)"><path d="M28.592 12.162a3.4 3.4 0 013.426-2.986 3.4 3.4 0 10-.824 6.71 3.4 3.4 0 01-2.602-3.724z"/><circle cx="3.401" cy="3.401" r="3.401" transform="translate(28.715 9.94)"/></g><g fill="#2f2e41"><path d="M28.472 11.883a3.4 3.4 0 013.036-3.381 3.4 3.4 0 100 6.761 3.4 3.4 0 01-3.036-3.38z" data-name="strand"/><circle cx="3.401" cy="3.401" r="3.401" data-name="bun" transform="translate(28.715 9.94)"/></g><path fill="#2f2e41" d="M21.67 17.227c-4.025 0-7.287 1.9-7.287 4.251a3.457 3.457 0 001.738 2.752l1.4-1.017-.381 1.592c.158.073.32.144.489.21l2.1-2.445v3a12.232 12.232 0 001.943.154c4.025 0 7.287-1.9 7.287-4.251s-3.264-4.246-7.289-4.246z"/><g fill="#e4b09a" data-name="ears" transform="translate(-.783 -.271)"><ellipse cx=".576" cy="1.383" data-name="ear_left" rx=".576" ry="1.383" transform="rotate(-15.639 105.072 -40.783)"/><ellipse cx="1.383" cy=".576" data-name="ear_right" rx="1.383" ry=".576" transform="rotate(-86.476 29.679 -1.533)"/></g></g></g></svg>