<svg xmlns="http://www.w3.org/2000/svg" width="213.967" height="256.821"><defs><filter id="a" width="172.194" height="221.759" x="0" y="0" filterUnits="userSpaceOnUse"><feOffset dx="-1" dy="-1"/><feGaussianBlur result="blur" stdDeviation="1.5"/><feFlood flood-opacity=".2"/><feComposite in2="blur" operator="in"/><feComposite in="SourceGraphic"/></filter><filter id="b" width="172.194" height="221.759" x="5" y="5" filterUnits="userSpaceOnUse"><feOffset dx="-1" dy="-1"/><feGaussianBlur result="blur-2" stdDeviation="1.5"/><feFlood flood-opacity=".2"/><feComposite in2="blur-2" operator="in"/><feComposite in="SourceGraphic"/></filter><filter id="c" width="172.194" height="221.759" x="9" y="10" filterUnits="userSpaceOnUse"><feOffset dx="-1" dy="-1"/><feGaussianBlur result="blur-3" stdDeviation="1.5"/><feFlood flood-opacity=".2"/><feComposite in2="blur-3" operator="in"/><feComposite in="SourceGraphic"/></filter></defs><g data-name="3"><g filter="url(#a)" transform="translate(.003)"><path fill="#f2f2f2" d="M168.671 218.262H5.505V9.62s165.647-9.257 163.166 0 0 208.642 0 208.642z" data-name="bg"/></g><path fill="#3f3d56" d="M169.014 218.606H5.153V9.267s48.235-2.39 84.1-3.306 59.372-.358 59.372-.358v.694s-23.677-.063-59.372.854-83.406 2.81-83.406 2.81v207.95h162.472V52.466h.694z"/><g fill="#3f3d56"><path d="M72.067 113.647c-.14 0-.28 0-.421-.013-2.272-.141-4.288-1.432-5.99-3.837-1.687-2.383-3.481-3.579-5.372-3.556-3.155.04-5.521 3.514-5.545 3.549l-.032.041c-.152.166-3.764 4.074-8.056 3.8-2.272-.141-4.288-1.432-5.99-3.837-1.688-2.383-3.5-3.579-5.372-3.556-3.155.04-5.521 3.514-5.545 3.549l-.577-.387c.1-.156 2.6-3.812 6.113-3.856 2.129-.037 4.12 1.268 5.948 3.849 1.575 2.224 3.413 3.417 5.464 3.545 3.825.236 7.227-3.284 7.488-3.561.242-.352 2.688-3.789 6.1-3.833h.064c2.1 0 4.074 1.295 5.883 3.85 1.575 2.224 3.413 3.417 5.464 3.545 3.964.251 7.469-3.54 7.5-3.578l.513.468c-.149.163-3.531 3.818-7.637 3.818z" data-name="4"/><path d="M124.689 96.956a25.574 25.574 0 01-13.836-3.73c-12.853-8.118-25.189-.087-25.312 0l-.04.023a42.837 42.837 0 01-16.7 3.711 25.575 25.575 0 01-13.836-3.73c-12.853-8.118-25.189-.087-25.312 0l-.385-.578c.127-.085 12.838-8.36 26.068 0 12.685 8.013 29.209.3 29.847-.01.606-.39 13.077-8.181 26.046.01 12.88 8.134 29.7.065 29.865-.018l.306.623a42.847 42.847 0 01-16.711 3.699z" data-name="3"/><path d="M124.689 80.293a25.574 25.574 0 01-13.836-3.73c-12.853-8.118-25.189-.087-25.312 0l-.04.023a42.836 42.836 0 01-16.7 3.711 25.575 25.575 0 01-13.836-3.73c-12.853-8.118-25.189-.087-25.312 0l-.385-.578c.127-.085 12.838-8.36 26.068 0 12.685 8.012 29.209.3 29.847-.01.606-.39 13.077-8.181 26.046.01 12.88 8.135 29.7.064 29.865-.018l.306.623a42.833 42.833 0 01-16.711 3.699z" data-name="2"/><path d="M124.689 63.628a25.574 25.574 0 01-13.836-3.73c-12.853-8.118-25.189-.087-25.312 0l-.04.023a42.836 42.836 0 01-16.7 3.711 25.575 25.575 0 01-13.836-3.73c-12.853-8.118-25.189-.087-25.312 0l-.385-.578c.127-.085 12.838-8.36 26.068 0 12.685 8.013 29.209.3 29.847-.01.606-.39 13.077-8.181 26.046.01 12.88 8.134 29.7.065 29.865-.018l.306.623a42.833 42.833 0 01-16.711 3.699z" data-name="1"/></g><path fill="#3f3d56" d="M103.4 179.724H70.767v-22.223h25v.694h-24.3v20.83h31.244v-10.411h.694z"/><path fill="#f7c91e" d="M25.635 33.222a4.166 4.166 0 114.166-4.166 4.166 4.166 0 01-4.166 4.166zm0-7.638a3.472 3.472 0 103.472 3.472 3.472 3.472 0 00-3.472-3.472zm69.971 146.572l-8.259-11.405 2.25-1.629 6.322 8.73 24.192-24.854 1.99 1.937z"/><path fill="#3f3d56" d="M25.561 206.58c1.969 7.278 8.713 11.786 8.713 11.786s3.552-7.293 1.583-14.571-8.713-11.786-8.713-11.786-3.552 7.296-1.583 14.571z"/><path fill="#f7c91e" d="M28.454 205.017c5.4 5.26 6.063 13.344 6.063 13.344s-8.1-.442-13.5-5.7-6.063-13.344-6.063-13.344 8.097.441 13.5 5.7z"/></g><g data-name="2"><g filter="url(#b)" transform="translate(.003)"><path fill="#f2f2f2" d="M173.671 223.262H10.505V14.62s165.647-9.257 163.166 0 0 208.642 0 208.642z" data-name="bg"/></g><path fill="#3f3d56" d="M174.014 223.606H10.153V14.267s48.235-2.39 84.1-3.306 59.372-.358 59.372-.358v.694s-23.677-.063-59.372.854-83.406 2.81-83.406 2.81v207.95h162.472V57.466h.694z" data-name="outline"/><g fill="#3f3d56" data-name="waves"><path d="M77.067 118.647c-.14 0-.28 0-.421-.013-2.272-.141-4.288-1.432-5.99-3.837-1.687-2.383-3.481-3.579-5.372-3.556-3.155.04-5.521 3.514-5.545 3.549l-.032.041c-.152.166-3.764 4.074-8.056 3.8-2.272-.141-4.288-1.432-5.99-3.837-1.688-2.383-3.5-3.579-5.372-3.556-3.155.04-5.521 3.514-5.545 3.549l-.577-.387c.1-.156 2.6-3.812 6.113-3.856 2.129-.037 4.12 1.268 5.948 3.849 1.575 2.224 3.413 3.417 5.464 3.545 3.825.236 7.227-3.284 7.488-3.561.242-.352 2.688-3.789 6.1-3.833h.064c2.1 0 4.074 1.295 5.883 3.85 1.575 2.224 3.413 3.417 5.464 3.545 3.964.251 7.469-3.54 7.5-3.578l.513.468c-.149.163-3.531 3.818-7.637 3.818z" data-name="4"/><path d="M129.689 101.956a25.574 25.574 0 01-13.836-3.73c-12.853-8.118-25.189-.087-25.312 0l-.04.023a42.837 42.837 0 01-16.7 3.711 25.575 25.575 0 01-13.836-3.73c-12.853-8.118-25.189-.087-25.312 0l-.385-.578c.127-.085 12.838-8.36 26.068 0 12.685 8.013 29.209.3 29.847-.01.606-.39 13.077-8.181 26.046.01 12.88 8.134 29.7.065 29.865-.018l.306.623a42.847 42.847 0 01-16.711 3.699z" data-name="3"/><path d="M129.689 85.293a25.574 25.574 0 01-13.836-3.73c-12.853-8.118-25.189-.087-25.312 0l-.04.023a42.836 42.836 0 01-16.7 3.711 25.575 25.575 0 01-13.836-3.73c-12.853-8.118-25.189-.087-25.312 0l-.385-.578c.127-.085 12.838-8.36 26.068 0 12.685 8.012 29.209.3 29.847-.01.606-.39 13.077-8.181 26.046.01 12.88 8.135 29.7.064 29.865-.018l.306.623a42.833 42.833 0 01-16.711 3.699z" data-name="2"/><path d="M129.689 68.628a25.574 25.574 0 01-13.836-3.73c-12.853-8.118-25.189-.087-25.312 0l-.04.023a42.836 42.836 0 01-16.7 3.711 25.575 25.575 0 01-13.836-3.73c-12.853-8.118-25.189-.087-25.312 0l-.385-.578c.127-.085 12.838-8.36 26.068 0 12.685 8.013 29.209.3 29.847-.01.606-.39 13.077-8.181 26.046.01 12.88 8.134 29.7.065 29.865-.018l.306.623a42.833 42.833 0 01-16.711 3.699z" data-name="1"/></g><path fill="#3f3d56" d="M108.4 184.724H75.767v-22.223h25v.694h-24.3v20.83h31.244v-10.411h.694z" data-name="checkbox"/><path fill="#f7c91e" d="M30.635 38.222a4.166 4.166 0 114.166-4.166 4.166 4.166 0 01-4.166 4.166zm0-7.638a3.472 3.472 0 103.472 3.472 3.472 3.472 0 00-3.472-3.472z" data-name="circle"/><path fill="#f7c91e" d="M100.606 177.156l-8.259-11.405 2.25-1.629 6.322 8.73 24.192-24.854 1.99 1.937z" data-name="check"/><path fill="#3f3d56" d="M30.561 211.58c1.969 7.278 8.713 11.786 8.713 11.786s3.552-7.293 1.583-14.571-8.713-11.786-8.713-11.786-3.552 7.296-1.583 14.571z" data-name="leaf_black"/><path fill="#f7c91e" d="M33.454 210.017c5.4 5.26 6.063 13.344 6.063 13.344s-8.1-.442-13.5-5.7-6.063-13.344-6.063-13.344 8.097.441 13.5 5.7z" data-name="leaf_yellow"/></g><g data-name="1"><g filter="url(#c)" transform="translate(.003)"><path fill="#f2f2f2" d="M177.671 228.262H14.505V19.62s165.647-9.257 163.166 0 0 208.642 0 208.642z" data-name="bg"/></g><path fill="#3f3d56" d="M178.014 228.606H14.153V19.267s48.235-2.39 84.1-3.306 59.372-.358 59.372-.358v.694s-23.677-.063-59.372.854-83.406 2.81-83.406 2.81v207.95h162.472V62.466h.694z" data-name="outline"/><g fill="#3f3d56" data-name="waves"><path d="M81.067 123.647c-.14 0-.28 0-.421-.013-2.272-.141-4.288-1.432-5.99-3.837-1.687-2.383-3.481-3.579-5.372-3.556-3.155.04-5.521 3.514-5.545 3.549l-.032.041c-.152.166-3.764 4.074-8.056 3.8-2.272-.141-4.288-1.432-5.99-3.837-1.688-2.383-3.5-3.579-5.372-3.556-3.155.04-5.521 3.514-5.545 3.549l-.577-.387c.1-.156 2.6-3.812 6.113-3.856 2.129-.037 4.12 1.268 5.948 3.849 1.575 2.224 3.413 3.417 5.464 3.545 3.825.236 7.227-3.284 7.488-3.561.242-.352 2.688-3.789 6.1-3.833h.064c2.1 0 4.074 1.295 5.883 3.85 1.575 2.224 3.413 3.417 5.464 3.545 3.964.251 7.469-3.54 7.5-3.578l.513.468c-.149.163-3.531 3.818-7.637 3.818z" data-name="4"/><path d="M133.689 106.956a25.574 25.574 0 01-13.836-3.73c-12.853-8.118-25.189-.087-25.312 0l-.04.023a42.837 42.837 0 01-16.7 3.711 25.575 25.575 0 01-13.836-3.73c-12.853-8.118-25.189-.087-25.312 0l-.385-.578c.127-.085 12.838-8.36 26.068 0 12.685 8.013 29.209.3 29.847-.01.606-.39 13.077-8.181 26.046.01 12.88 8.134 29.7.065 29.865-.018l.306.623a42.847 42.847 0 01-16.711 3.699z" data-name="3"/><path d="M133.689 90.293a25.574 25.574 0 01-13.836-3.73c-12.853-8.118-25.189-.087-25.312 0l-.04.023a42.836 42.836 0 01-16.7 3.711 25.575 25.575 0 01-13.836-3.73c-12.853-8.118-25.189-.087-25.312 0l-.385-.578c.127-.085 12.838-8.36 26.068 0 12.685 8.012 29.209.3 29.847-.01.606-.39 13.077-8.181 26.046.01 12.88 8.135 29.7.064 29.865-.018l.306.623a42.833 42.833 0 01-16.711 3.699z" data-name="2"/><path d="M133.689 73.628a25.574 25.574 0 01-13.836-3.73c-12.853-8.118-25.189-.087-25.312 0l-.04.023a42.836 42.836 0 01-16.7 3.711 25.575 25.575 0 01-13.836-3.73c-12.853-8.118-25.189-.087-25.312 0l-.385-.578c.127-.085 12.838-8.36 26.068 0 12.685 8.013 29.209.3 29.847-.01.606-.39 13.077-8.181 26.046.01 12.88 8.134 29.7.065 29.865-.018l.306.623a42.833 42.833 0 01-16.711 3.699z" data-name="1"/></g><path fill="#3f3d56" d="M112.4 189.724H79.767v-22.223h25v.694h-24.3v20.83h31.244v-10.411h.694z" data-name="checkbox"/><path fill="#f7c91e" d="M34.635 43.222a4.166 4.166 0 114.166-4.166 4.166 4.166 0 01-4.166 4.166zm0-7.638a3.472 3.472 0 103.472 3.472 3.472 3.472 0 00-3.472-3.472z" data-name="circle"/><path fill="#f7c91e" d="M104.606 182.156l-8.259-11.405 2.25-1.629 6.322 8.73 24.192-24.854 1.99 1.937z" data-name="check"/><path fill="#3f3d56" d="M34.561 216.58c1.969 7.278 8.713 11.786 8.713 11.786s3.552-7.293 1.583-14.571-8.713-11.786-8.713-11.786-3.552 7.296-1.583 14.571z" data-name="leaf_black"/><path fill="#f7c91e" d="M37.454 215.017c5.4 5.26 6.063 13.344 6.063 13.344s-8.1-.442-13.5-5.7-6.063-13.344-6.063-13.344 8.097.441 13.5 5.7z" data-name="leaf_yellow"/></g><g transform="translate(2214.153 20380.48)"><path fill="#2f2e41" d="M-2049.75-20224.045l-13.192 34.026s-6.6 10.415-4.166 20.83 7.985 29.162 7.985 29.162 6.249-2.43 5.9-6.943 2.777-20.483-2.43-26.384l18.4-26.037.694 27.426s-1.389 12.5-1.041 18.052 1.041 14.928 1.041 14.928l4.166-.694s7.29-25.69 6.6-34.022c0 0 13.192-40.618 0-50.338z"/><path fill="#292838" d="M-2058.082-20141.768s-3.124 0-2.777 2.777-2.778 16.317 3.822 15.275 7.29-7.638 7.29-12.151.347-4.86 1.042-5.9 2.777-10.068 0-9.721a19.661 19.661 0 00-5.9 2.083s1.036 7.637-3.477 7.637zm23.607.001s-4.86-.694-4.513 1.042-.694 9.026 0 9.721 2.083 2.083 2.083 3.124.347 4.513 6.249 3.472 4.513-6.249 4.166-6.943-4.513-4.166-4.166-6.249-1.736-5.556-3.819-4.167z"/><path fill="#a0616a" d="M-2047.666-20268.829s4.166 10.762-3.472 10.762 11.8 10.762 19.441 4.513 3.124-6.6 3.124-6.6-10.068 1.041-9.721-7.985z"/><path fill="#575a89" d="M-2033.954-20261.019s3 5.934-6.125 6.037c-2.866.032-5.6-2.43-7.414-4.649-.641-.783-.911.824-2.083.694-3.125-.347-11.63.174-11.63 5.728s9.721 26.732 9.026 28.814-4.166 1.736 0 3.125 12.5-2.083 18.052.694 10.762-4.166 10.762-4.166l8.332-29.856s-12.671-7.809-18.92-6.421z"/><path fill="#a0616a" d="M-2058.081-20204.952s-8.679 6.943-4.86 9.373 8.332-9.373 8.332-9.373z"/><path fill="#575a89" d="M-2057.732-20257.547a6.68 6.68 0 00-4.417 6.174l-.443 26.46s-2.083 21.524 3.124 21.524 9.026 1.736 9.721 0-2.43-17.358-2.43-17.358z"/><path fill="#a0616a" d="M-2024.754-20229.948s-11.456 4.513-7.638 6.943 7.638-4.166 7.638-4.166z"/><path fill="#575a89" d="M-2021.63-20255.637l6.6 1.041s18.4 9.026 14.234 15.275-21.871 15.275-21.871 15.275-6.6-3.125-4.513-5.207 11.456-9.373 11.456-9.373l-7.985-7.29z"/><circle cx="13.533" cy="13.533" r="13.533" fill="#2f2e41" transform="translate(-2056.506 -20292.52)"/><circle cx="9.373" cy="9.373" r="9.373" fill="#a0616a" transform="translate(-2052.18 -20282.715)"/><path fill="#2f2e41" d="M-2034.042-20280.55l-6.868-3.6-9.484 1.471-1.965 8.671 4.884-.188 1.364-3.184v3.131l2.254-.087 1.308-5.069.818 5.4 8.012-.164z"/><g fill="#2f2e41"><circle cx="5.461" cy="5.461" r="5.461" data-name="bun" transform="translate(-2047.722 -20299.879)"/><path d="M-2049.146-20296.08a5.462 5.462 0 014.629-5.4 5.461 5.461 0 100 10.8 5.462 5.462 0 01-4.629-5.4z"/></g></g></svg>