<svg id="Calque_1" data-name="Calque 1" xmlns="http://www.w3.org/2000/svg" viewBox="0 0 197.11 168.19"><g id="sct_logo_colored_squaredWithoutBackgroundAndSubtitle" data-name="sct logo colored squaredWithoutBackgroundAndSubtitle"><g id="Sct_" data-name="Sct " style="isolation:isolate"><g style="isolation:isolate"><path d="M82.26,164.5a10.26,10.26,0,0,1-1.64,5.72,10.84,10.84,0,0,1-4.79,4,18,18,0,0,1-7.49,1.44,17,17,0,0,1-8.57-2,11.5,11.5,0,0,1-3.89-3.77,8.6,8.6,0,0,1-1.49-4.58,3.11,3.11,0,0,1,3.18-3.14,2.68,2.68,0,0,1,1.9.72A5.69,5.69,0,0,1,60.8,165a14.24,14.24,0,0,0,1.45,2.8,5.82,5.82,0,0,0,2.19,1.85,8.05,8.05,0,0,0,3.71.73,8.39,8.39,0,0,0,5.13-1.47,4.43,4.43,0,0,0,2-3.67,3.89,3.89,0,0,0-1.06-2.84,6.92,6.92,0,0,0-2.75-1.66c-1.13-.38-2.63-.79-4.51-1.22a33.09,33.09,0,0,1-6.33-2.07,10.3,10.3,0,0,1-4.05-3.23,8.42,8.42,0,0,1-1.49-5.08A8.7,8.7,0,0,1,56.64,144a9.86,9.86,0,0,1,4.57-3.45,18.61,18.61,0,0,1,7-1.21,17.23,17.23,0,0,1,5.59.8,11.68,11.68,0,0,1,3.91,2.13A8.6,8.6,0,0,1,80,145.08a6.39,6.39,0,0,1,.72,2.84,3.37,3.37,0,0,1-.9,2.29,2.83,2.83,0,0,1-2.23,1,2.57,2.57,0,0,1-1.86-.61,8.08,8.08,0,0,1-1.37-2,9.06,9.06,0,0,0-2.3-3.1,6.73,6.73,0,0,0-4.31-1.11,7.47,7.47,0,0,0-4.43,1.2,3.52,3.52,0,0,0-1.69,2.91,3,3,0,0,0,.57,1.82,5,5,0,0,0,1.58,1.32,11.22,11.22,0,0,0,2,.86c.68.2,1.81.51,3.39.9A54.31,54.31,0,0,1,74.59,155a16,16,0,0,1,4.1,2,8.44,8.44,0,0,1,2.63,3A9.67,9.67,0,0,1,82.26,164.5Z" transform="translate(-10.44 -7.44)" fill="#2f3e55"/><path d="M118.17,164a9.35,9.35,0,0,1-.82,3.63,13.32,13.32,0,0,1-7.12,6.88,16.26,16.26,0,0,1-6.41,1.17,22.5,22.5,0,0,1-5-.53,13.53,13.53,0,0,1-7.54-4.57,17.47,17.47,0,0,1-2.36-3.69,19.23,19.23,0,0,1-1.48-4.37,24.31,24.31,0,0,1-.49-4.93A21.64,21.64,0,0,1,88.14,150a15.91,15.91,0,0,1,3.53-5.73,15.33,15.33,0,0,1,5.38-3.63,17.42,17.42,0,0,1,6.58-1.24,16.3,16.3,0,0,1,7.58,1.7,13.74,13.74,0,0,1,5.1,4.19,8.32,8.32,0,0,1,1.77,4.73,3.09,3.09,0,0,1-.86,2.15,2.76,2.76,0,0,1-2.08.94,2.9,2.9,0,0,1-2-.65,9.11,9.11,0,0,1-1.52-2.22,10.64,10.64,0,0,0-3.26-3.9,7.94,7.94,0,0,0-4.63-1.3,8.39,8.39,0,0,0-7,3.33q-2.6,3.33-2.59,9.45a17.67,17.67,0,0,0,1.14,6.81,8.56,8.56,0,0,0,3.26,4,8.9,8.9,0,0,0,4.93,1.34,8.6,8.6,0,0,0,5.18-1.52,9.18,9.18,0,0,0,3.19-4.46,7.45,7.45,0,0,1,1.13-2.26,2.53,2.53,0,0,1,2.15-.87,3,3,0,0,1,2.18.88A3,3,0,0,1,118.17,164Z" transform="translate(-10.44 -7.44)" fill="#2f3e55"/><path d="M147.34,145.82h-7.75V171.3a4.69,4.69,0,0,1-1,3.26,3.57,3.57,0,0,1-5.11,0,4.66,4.66,0,0,1-1-3.25V145.82h-7.76a3.94,3.94,0,0,1-2.7-.8,2.73,2.73,0,0,1-.88-2.12,2.65,2.65,0,0,1,.92-2.15,4,4,0,0,1,2.66-.79h22.59a4,4,0,0,1,2.74.81,2.95,2.95,0,0,1,0,4.25A4.06,4.06,0,0,1,147.34,145.82Z" transform="translate(-10.44 -7.44)" fill="#2f3e55"/><path d="M165.67,157.73H155.28a2.75,2.75,0,0,1-1.89-.6,1.84,1.84,0,0,1-.67-1.41,2.66,2.66,0,0,1,.6-1.64,10,10,0,0,1,1.56-1.56c.63-.53,1.6-1.29,2.89-2.28l1.95-1.35a14.74,14.74,0,0,0,2.51-2,2.63,2.63,0,0,0,.73-1.8,2,2,0,0,0-.8-1.66,3.29,3.29,0,0,0-2.07-.61,3.14,3.14,0,0,0-2,.52,4.78,4.78,0,0,0-1.18,1.57,6.69,6.69,0,0,1-.89,1.46,1.78,1.78,0,0,1-1.34.42,2,2,0,0,1-1.37-.49,1.68,1.68,0,0,1-.55-1.3,4.23,4.23,0,0,1,.81-2.38,6,6,0,0,1,2.49-2,9.58,9.58,0,0,1,4.12-.79c2.44,0,4.26.5,5.45,1.52a4.66,4.66,0,0,1,1.8,3.69,4.83,4.83,0,0,1-1.41,3.46,25,25,0,0,1-4,3.21,19.69,19.69,0,0,0-3.39,2.59h6.63a3.24,3.24,0,0,1,1.88.47,1.5,1.5,0,0,1,.65,1.28,1.65,1.65,0,0,1-.53,1.21A2.21,2.21,0,0,1,165.67,157.73Z" transform="translate(-10.44 -7.44)" fill="#2f3e55"/></g></g><g id="Growth"><path id="mountain-2" d="M17,119.83l58.1-64.32L95.93,80.13l52.56-59.61,31.13,51.1,27.93,25.63L179.62,83.33,169.11,94.81,148.49,30.6,132.07,57.1,110,71.63V88.2l-7.92,15.12L77.92,77.54l-9.64,22L60.79,87Z" transform="translate(-10.44 -7.44)" fill="#fff"/><g id="arrow"><line id="_4" data-name=" 4" x1="3.5" y1="112.86" x2="64.51" y2="45.9" fill="none" stroke="#2f3e55" stroke-linecap="round" stroke-width="7"/><line id="_5" data-name=" 5" x1="85.34" y1="71.2" x2="64.51" y2="45.9" fill="none" stroke="#2f3e55" stroke-linecap="round" stroke-width="7"/><line id="_6" data-name=" 6" x1="85.34" y1="71.2" x2="143.37" y2="3.5" fill="none" stroke="#2f3e55" stroke-linecap="round" stroke-width="7"/><line id="_7" data-name=" 7" x1="143.37" y1="14.66" x2="143.37" y2="3.5" fill="none" stroke="#2f3e55" stroke-linecap="round" stroke-width="7"/><line id="_8" data-name=" 8" x1="131.46" y1="7.22" x2="143.36" y2="3.5" fill="none" stroke="#2f3e55" stroke-linecap="round" stroke-width="7"/></g></g></g></svg>