<svg xmlns="http://www.w3.org/2000/svg" width="216.551" height="185.03"><defs><filter id="a" width="208.607" height="117.311" x="7.943" y="14.524" filterUnits="userSpaceOnUse"><feOffset dy="3"/><feGaussianBlur result="blur" stdDeviation="3"/><feFlood flood-opacity=".149"/><feComposite in2="blur" operator="in"/><feComposite in="SourceGraphic"/></filter><filter id="b" width="88.894" height="94.845" x="0" y="42.397" filterUnits="userSpaceOnUse"><feOffset dy="3"/><feGaussianBlur result="blur-2" stdDeviation="3"/><feFlood flood-opacity=".161"/><feComposite in2="blur-2" operator="in"/><feComposite in="SourceGraphic"/></filter><filter id="c" width="48.684" height="53.148" x="61.023" y="42.414" filterUnits="userSpaceOnUse"><feOffset dy="3"/><feGaussianBlur result="blur-3" stdDeviation="3"/><feFlood flood-opacity=".161"/><feComposite in2="blur-3" operator="in"/><feComposite in="SourceGraphic"/></filter><filter id="d" width="85.899" height="95.571" x="81.845" y="0" filterUnits="userSpaceOnUse"><feOffset dy="3"/><feGaussianBlur result="blur-4" stdDeviation="3"/><feFlood flood-opacity=".161"/><feComposite in2="blur-4" operator="in"/><feComposite in="SourceGraphic"/></filter></defs><text fill="#2f3e55" data-name="Sct²" font-family="ArialRoundedMTBold, Arial Rounded MT" font-size="49" transform="translate(51.781 175.03)"><tspan x="0" y="0">SCT²</tspan></text><g filter="url(#a)" transform="translate(.004 -.005)"><path fill="#fff" d="M16.943 119.831l58.1-64.318 20.88 24.625 52.559-59.618 31.132 51.107 27.937 25.632-27.937-13.92-10.512 11.472-20.62-64.211-16.416 26.5-22.032 14.53v16.575l-7.92 15.12-24.194-25.78-9.648 22.032-7.488-12.528z" data-name="mountain"/></g><g filter="url(#b)" transform="translate(.004 -.005)"><path fill="none" stroke="#2f3e55" stroke-linecap="round" stroke-width="7" d="M13.94 120.297L74.945 53.34" data-name="|"/></g><g filter="url(#c)" transform="translate(.004 -.005)"><path fill="none" stroke="#2f3e55" stroke-linecap="round" stroke-width="7" d="M95.781 78.635L74.95 53.34" data-name="|"/></g><g filter="url(#d)" transform="translate(.004 -.005)"><path fill="none" stroke="#2f3e55" stroke-linecap="round" stroke-width="7" d="M95.78 78.641l58.029-67.701" data-name="|"/></g><path fill="none" stroke="#2f3e55" stroke-linecap="round" stroke-width="7" d="M153.809 22.094V10.935" data-name="\"/><path fill="none" stroke="#2f3e55" stroke-linecap="round" stroke-width="7" d="M141.905 14.655l11.903-3.72" data-name="/"/></svg>